FILE "multifile-side-a.bin" BINARY
  TRACK 01 AUDIO
    TITLE "Opening Vector"
    PERFORMER "Northbound"
    INDEX 01 00:00:00
  TRACK 02 AUDIO
    TITLE "Glass Harbor"
    PERFORMER "Northbound"
    INDEX 01 02:30:00
FILE "multifile-side-b.flac" WAVE
  TRACK 03 AUDIO
    TITLE "Night Signal"
    PERFORMER "Northbound"
    INDEX 01 00:00:00
  TRACK 04 AUDIO
    TITLE "Arrival Pattern"
    PERFORMER "Northbound"
    INDEX 01 03:00:00
PERFORMER "Northbound"
REM DATE "2008"
REM GENRE "Ambient"
TITLE "Late Signals"
